<svg width="1308" height="1095" viewBox="0 0 1308 1095" fill="none" xmlns="http://www.w3.org/2000/svg">
<path d="M0 56.5335C0 103.467 0.266667 113.2 1.86667 113.734C2.8 114.134 16.9333 116.134 33.2 118.134L62.6667 121.734L62.8 133.867C63.2 201.867 62.8 509.6 62.4 510.134C62 510.4 54 511.867 44.5333 513.467C13.0667 518.267 2.13333 520.134 1.2 520.667C0.666667 521.067 0.266667 546.534 0.266667 577.334V633.334H3.86667C16.8 633.467 262.4 633.6 263.733 633.467C265.867 633.334 266.133 522 264 520.667C263.2 520.267 252 518.134 238.933 516C226 513.734 213.333 511.734 211.067 511.334L206.667 510.534V356.4C206.667 271.467 207.2 202.667 207.733 203.334C208.933 204.8 209.733 206.534 232.667 258.667C247.733 292.534 256.933 313.067 299.6 407.334C310.267 430.8 323.6 460.534 329.333 473.334C335.067 486.134 341.6 500.8 344 506C346.4 511.067 350.533 520.4 353.333 526.667C356.133 532.934 360.8 543.334 363.867 549.734C366.8 556.267 369.333 561.734 369.333 562C369.333 562.267 374.533 573.734 380.8 587.6C387.067 601.334 394 617.2 396.267 622.667C398.533 628.134 400.667 632.934 400.8 633.2C401.733 634.267 512.133 633.734 513.333 632.534C514 631.867 515.6 628.267 517.067 624.667C520.267 616.667 536.8 576.667 557.067 528C571.333 493.6 589.333 450 610.933 397.334C620.4 374.534 642.133 322.4 649.333 305.334C653.333 296 665.6 266.4 673.733 246.667C677.733 236.8 683.6 222.534 686.667 215.067C689.733 207.467 692.8 201.734 693.467 202.134C695.333 203.2 694.8 507.334 692.933 509.734C691.867 510.934 682.4 513.067 664.933 515.867C650.4 518.134 637.867 520.267 637.2 520.667C636.533 521.2 636 545.467 636 577.467V633.334H642.4C645.867 633.334 703.867 633.334 771.333 633.467L894 633.734L894.4 629.2C894.933 622.4 901.2 557.467 901.867 551.2C902.4 547.6 906.133 539.734 913.067 527.867C918.8 518 930 498.934 937.867 485.334C970.267 429.867 997.467 383.867 1026.93 334.667C1050.4 295.6 1087.47 231.734 1092.67 221.6C1095.33 216.4 1098 211.734 1098.8 211.334C1099.47 210.8 1100 266.667 1100 360.534V510.534L1093.07 511.867C1089.2 512.667 1076.8 514.8 1065.6 516.667C1054.27 518.534 1044.67 520.267 1044.27 520.534C1043.73 520.8 1043.6 546.4 1044 577.2L1044.67 633.467H1175.2C1246.93 633.467 1306 633.067 1306.4 632.8C1307.33 631.734 1307.6 527.867 1306.67 524C1306 521.6 1304.53 520.4 1301.2 519.6C1296 518.534 1248.4 510.667 1246.53 510.667C1245.87 510.667 1245.33 434.134 1245.33 316.667V122.667L1248.4 122C1250.13 121.467 1263.6 119.467 1278.4 117.467C1293.2 115.467 1305.6 113.467 1306.13 112.934C1306.53 112.534 1307.07 87.0668 1307.2 56.4002L1307.33 0.666829L1196.4 0.266829L1085.6 0.000162259L1082.93 4.26683C1081.6 6.66683 1076.27 15.8668 1071.07 24.6668C1044.53 70.0002 1013.6 122.8 996.667 151.334C986.133 168.934 966.933 201.334 953.867 223.334C940.933 245.334 917.867 284 902.667 309.334C870.933 362.4 858.533 383.6 851.333 396.667C848.533 401.734 844.933 408 843.333 410.4L840.4 414.8L839.6 408.534C838.267 396.534 839.333 124.134 840.667 122.8C841.467 122.134 848.667 120.8 856.667 120C877.6 117.867 897.733 114.8 898.933 113.6C899.6 112.934 899.867 87.3335 899.733 56.5335L899.333 0.666829L764.4 0.266829L629.6 0.000162259L628.267 3.60016C627.467 5.7335 622 19.3335 616 34.0002C604.4 62.1335 590.533 96.4002 569.733 148C562.8 165.2 548.4 200.667 537.733 226.667C514.667 282.8 479.333 370.4 467.067 401.6C462.267 414 457.867 424 457.467 424C456.933 424 452.133 413.6 446.8 400.934C441.333 388.4 434.4 372.267 431.333 365.334C428.133 358.4 421.2 342.8 416 330.667C410.667 318.534 404.4 304.134 402 298.667C394.533 281.867 374.533 235.867 369.867 225.334C367.6 219.867 362.933 209.334 359.6 202C356.4 194.667 350.533 181.467 346.8 172.667C337.2 150.934 330.933 136.8 327.067 128C325.2 124 321.067 114.667 318 107.334C311.467 92.1335 301.733 69.7335 292.667 49.3335C289.333 41.6002 283.733 29.0668 280.4 21.3335C277.067 13.6002 273.467 5.7335 272.533 3.60016L270.533 0.000162259H135.333H0V56.5335Z" fill="#FD3838"/>
<path d="M1.1998 712.266C0.799803 713.466 0.66647 783.599 1.06647 784.933C1.46647 786.266 133.333 786.666 654.133 786.666H1306.67V749.333V711.999H654C295.067 711.999 1.33314 712.133 1.1998 712.266Z" fill="#FD3838"/>
<path d="M140 903.333V941.333L653.6 941.066L1167.07 940.666V926.666C1167.07 918.933 1166.93 902 1166.8 888.933L1166.67 865.333H653.333H140V903.333Z" fill="#FD3838"/>
<path d="M344.533 1019.87C344.267 1020.13 344 1037.2 344 1057.6V1094.67H654H964V1057.33C964 1028.53 963.6 1020 962.4 1019.73C958.533 1019.2 345.067 1019.33 344.533 1019.87Z" fill="#FD3838"/>
</svg>
